<?xml version="1.0" encoding="utf-8"?>
<!-- Generator: Adobe Illustrator 16.0.0, SVG Export Plug-In . SVG Version: 6.00 Build 0)  -->
<!DOCTYPE svg PUBLIC "-//W3C//DTD SVG 1.1//EN" "http://www.w3.org/Graphics/SVG/1.1/DTD/svg11.dtd">
<svg version="1.1" id="Layer_1" xmlns="http://www.w3.org/2000/svg" xmlns:xlink="http://www.w3.org/1999/xlink" x="0px" y="0px"
	 width="48px" height="48px" viewBox="0 0 48 48" enable-background="new 0 0 48 48" xml:space="preserve">
<path fill="#FFFFFF" d="M24,0C10.746,0,0,10.746,0,24s10.746,24,24,24s24-10.746,24-24S37.254,0,24,0z M24,42
	c-9.939,0-18-8.061-18-18c0-9.939,8.061-18,18-18c9.939,0,18,8.061,18,18C42,33.939,33.939,42,24,42z M26.121,12.876l6,6
	c0.855,0.858,1.113,2.148,0.65,3.273C32.311,23.268,31.212,24,30,24h-3v9c0,1.659-1.341,3-3,3s-3-1.341-3-3v-9h-3
	c-1.212,0-2.31-0.732-2.772-1.851c-0.462-1.122-0.207-2.415,0.651-3.273l6-6c0.585-0.585,1.353-0.879,2.121-0.879
	C24.768,11.997,25.536,12.291,26.121,12.876z"/>
</svg>
