<?xml version="1.0" encoding="utf-8"?>
<!-- Generator: Adobe Illustrator 16.0.0, SVG Export Plug-In . SVG Version: 6.00 Build 0)  -->
<!DOCTYPE svg PUBLIC "-//W3C//DTD SVG 1.1//EN" "http://www.w3.org/Graphics/SVG/1.1/DTD/svg11.dtd">
<svg version="1.1" id="Layer_1" xmlns="http://www.w3.org/2000/svg" xmlns:xlink="http://www.w3.org/1999/xlink" x="0px" y="0px"
	 width="48px" height="48px" viewBox="0 0 48 48" enable-background="new 0 0 48 48" xml:space="preserve">
<path fill="#FFFFFF" d="M24,48c13.254,0,24-10.746,24-24S37.254,0,24,0S0,10.746,0,24S10.746,48,24,48z M24,6
	c9.939,0,18,8.061,18,18c0,9.938-8.061,18-18,18S6,33.938,6,24C6,14.061,14.061,6,24,6z M21.879,35.124l-6-6
	c-0.855-0.858-1.113-2.148-0.65-3.273C15.689,24.731,16.788,24,18,24h3v-9c0-1.659,1.341-3,3-3s3,1.341,3,3v9h3
	c1.212,0,2.311,0.731,2.771,1.851c0.463,1.122,0.207,2.415-0.65,3.273l-6,6c-0.585,0.585-1.354,0.879-2.121,0.879
	S22.464,35.709,21.879,35.124z"/>
</svg>
