<?xml version="1.0" encoding="utf-8"?>
<!-- Generator: Adobe Illustrator 15.1.0, SVG Export Plug-In . SVG Version: 6.00 Build 0)  -->
<!DOCTYPE svg PUBLIC "-//W3C//DTD SVG 1.1//EN" "http://www.w3.org/Graphics/SVG/1.1/DTD/svg11.dtd">
<svg version="1.1" id="Ebene_1" xmlns="http://www.w3.org/2000/svg" xmlns:xlink="http://www.w3.org/1999/xlink" x="0px" y="0px"
	 width="100px" height="88.25px" viewBox="0 0 100 88.25" enable-background="new 0 0 100 88.25" xml:space="preserve">
<g id="Captions">
</g>
<g id="Your_Icon">
	<rect x="19.438" y="51.35" fill="#EDEBD8" width="56.962" height="11.562"/>
	<path fill="#EDEBD8" d="M76.645,13.328c-0.002,0-0.006,0.001-0.011,0.001c0.009-0.175,0.027-0.348,0.027-0.523
		C76.661,5.732,70.93,0,63.857,0c-4.571,0-8.575,2.405-10.84,6.013c-2.051-2.361-5.063-3.859-8.435-3.859
		c-5.281,0-9.695,3.667-10.863,8.59c-1.711-1.634-4.024-2.642-6.577-2.642c-5.269,0-9.538,4.27-9.538,9.537
		c0,0.883,0.13,1.734,0.354,2.547c-2.748,0.666-4.795,3.126-4.795,6.079c0,3.464,2.809,6.271,6.271,6.271h0.001v16.853H76.4V33.697
		c0.08,0.002,0.162,0.014,0.244,0.014c5.629,0,10.189-4.563,10.189-10.191S82.273,13.328,76.645,13.328z"/>
</g>
</svg>
