<?xml version="1.0" encoding="utf-8"?>
<!-- Generator: Adobe Illustrator 16.0.0, SVG Export Plug-In . SVG Version: 6.00 Build 0)  -->
<!DOCTYPE svg PUBLIC "-//W3C//DTD SVG 1.1//EN" "http://www.w3.org/Graphics/SVG/1.1/DTD/svg11.dtd">
<svg version="1.1" id="Layer_1" xmlns="http://www.w3.org/2000/svg" xmlns:xlink="http://www.w3.org/1999/xlink" x="0px" y="0px"
	 width="48px" height="48px" viewBox="0 0 48 48" enable-background="new 0 0 48 48" xml:space="preserve">
<path fill="#1D1D1B" d="M24,48C10.746,48,0,37.254,0,24S10.746,0,24,0s24,10.746,24,24S37.254,48,24,48z M24,6
	C14.061,6,6,14.061,6,24c0,9.939,8.061,18,18,18c9.939,0,18-8.061,18-18C42,14.061,33.939,6,24,6z M32.484,32.484
	c-1.174,1.173-3.069,1.173-4.242,0L24,28.242l-4.242,4.242c-1.173,1.173-3.072,1.173-4.245,0c-1.173-1.174-1.173-3.069,0-4.242
	L19.758,24l-4.245-4.242c-1.173-1.173-1.173-3.072,0-4.245c1.173-1.173,3.072-1.173,4.245,0L24,19.758l4.242-4.245
	c1.173-1.173,3.068-1.173,4.242,0c1.173,1.173,1.173,3.072,0,4.245L28.242,24l4.242,4.242
	C33.657,29.415,33.657,31.314,32.484,32.484z"/>
</svg>
