<?xml version="1.0" encoding="utf-8"?>
<!-- Generator: Adobe Illustrator 15.1.0, SVG Export Plug-In . SVG Version: 6.00 Build 0)  -->
<!DOCTYPE svg PUBLIC "-//W3C//DTD SVG 1.1//EN" "http://www.w3.org/Graphics/SVG/1.1/DTD/svg11.dtd">
<svg version="1.1" id="Ebene_1" xmlns="http://www.w3.org/2000/svg" xmlns:xlink="http://www.w3.org/1999/xlink" x="0px" y="0px"
	 width="100px" height="20.132px" viewBox="0 79.868 100 20.132" enable-background="new 0 79.868 100 20.132" xml:space="preserve"
	>
<g id="Captions">
</g>
<path fill="#EDEBD8" d="M75.833,85.259c-0.224-0.082-0.211,0.271-0.541,1.229c-1.276,4.027-4.541,5.275-6.289,5.275
	s-3.953-0.799-6.051-4.469c-2.097-3.67-4.894-7.427-9.437-7.427c-4.094,0-5.488,2.331-5.727,2.797
	c-0.238-0.466-1.633-2.797-5.725-2.797c-4.544,0-7.34,3.757-9.438,7.427c-2.099,3.67-4.305,4.469-6.051,4.469
	c-1.748,0-5.014-1.248-6.289-5.275c-0.33-0.961-0.316-1.312-0.539-1.229c-0.117,0.043-0.125,0.349-0.064,0.993
	C19.743,86.896,21.706,100,34.6,100c7.176,0,12.969-3.412,12.969-10.062c0,0-0.008-0.242,0.222-0.271
	c0.229,0.028,0.223,0.271,0.223,0.271c0,6.65,5.794,10.062,12.968,10.062c12.896,0,14.855-13.104,14.918-13.748
	C75.954,85.607,75.947,85.302,75.833,85.259z"/>
</svg>
