<?xml version="1.0" encoding="utf-8"?>
<!-- Generator: Adobe Illustrator 16.0.0, SVG Export Plug-In . SVG Version: 6.00 Build 0)  -->
<!DOCTYPE svg PUBLIC "-//W3C//DTD SVG 1.1//EN" "http://www.w3.org/Graphics/SVG/1.1/DTD/svg11.dtd">
<svg version="1.1" id="Layer_1" xmlns="http://www.w3.org/2000/svg" xmlns:xlink="http://www.w3.org/1999/xlink" x="0px" y="0px"
	 width="48px" height="48px" viewBox="0 0 48 48" enable-background="new 0 0 48 48" xml:space="preserve">
<path fill="#FFFFFF" d="M39,0H9C4.029,0,0,4.032,0,9v30c0,4.971,4.029,9,9,9h30c4.971,0,9-4.029,9-9V9C48,4.032,43.971,0,39,0z
	 M42,39c0,1.659-1.341,3-3,3H9c-1.656,0-3-1.341-3-3V9c0-1.656,1.344-3,3-3h30c1.659,0,3,1.344,3,3V39z M31.377,15.51L20.772,26.115
	l-4.245-4.242c-1.17-1.173-3.069-1.173-4.242,0c-1.173,1.173-1.173,3.072,0,4.242l6.366,6.363c1.17,1.172,3.069,1.172,4.242,0
	l12.726-12.727c1.173-1.173,1.173-3.069,0-4.242C34.445,14.337,32.55,14.337,31.377,15.51z"/>
</svg>
